# xmcd CD database file
#
# Track frame offsets:
#	150
#	12769
#	26395
#	36714
#	48188
#	61277
#	71842
#	82481
#	94660
#	105300
#	121635
#	136371
#	148698
#	164278
#	176732
#	187377
#	199097
#	209459
#	223571
#	237003
#	249947
#	262956
#	276194
#	287457
#
# Disc length: 3944 seconds
#
# Revision: 7
# Processed by: cddbd v1.5.2PL0 Copyright (c) Steve Scherf et al.
# Submitted via: CDex 1.51
#
DISCID=620f6618
DTITLE=Nat King Cole - Vol.10 - That's My Girl
DYEAR=1900
DGENRE=Jazz
TTITLE0=I'll Never Say ''Never Again'' Again
TTITLE1=I Almost Lost My Mind
TTITLE2=The Greatest Inventor Of Them All
TTITLE3=Orange Colored Sky
TTITLE4=Jam-Bo
TTITLE5=Get To Gettin'
TTITLE6=Paint Yourself A Rainbow
TTITLE7=Destination Moon
TTITLE8=That's My Girl
TTITLE9=Too Young
TTITLE10=Red Sails In The Sunset
TTITLE11=Wish I Were Somebody Else
TTITLE12=Unforgettable
TTITLE13=Pretend
TTITLE14=It's Crazy
TTITLE15=You Stepped Out Of A Dream
TTITLE16=Where Were You
TTITLE17=Summer Is A Cumin' In
TTITLE18=Funny  (Not Much)
TTITLE19=There Goes My Heart
TTITLE20=I Love You For Sentimental Reaons
TTITLE21=Tenderly
TTITLE22=This Can't Be Love
TTITLE23=Almost Like Being In Love
EXTD=
EXTT0=
EXTT1=
EXTT2=
EXTT3=
EXTT4=
EXTT5=
EXTT6=
EXTT7=
EXTT8=
EXTT9=
EXTT10=
EXTT11=
EXTT12=
EXTT13=
EXTT14=
EXTT15=
EXTT16=
EXTT17=
EXTT18=
EXTT19=
EXTT20=
EXTT21=
EXTT22=
EXTT23=
PLAYORDER=
